<svg width="44" height="44" viewBox="0 0 44 44" fill="none" xmlns="http://www.w3.org/2000/svg">
<g clip-path="url(#clip0_186_1108)">
<path d="M2.222 0L0 2.222L3.91431 8.99123L6.45277 8.61892L21.9475 24.1154L20.6258 25.3846C19.9489 26.0615 19.9489 27.0871 20.6258 27.764L21.3129 28.4528C21.9898 29.1297 23.0255 29.1297 23.5332 28.4528L25.5437 30.4615C25.3745 31.4769 25.5437 32.6835 26.3898 33.5297L35.5384 42.6259C37.4 44.4874 40.4461 44.4874 42.3077 42.6259C44.5077 40.5951 44.4874 37.5591 42.6258 35.6975L33.5297 26.5472C32.6835 25.7011 31.4769 25.3626 30.4615 25.7011L28.2395 23.6923C28.7472 23.0154 28.7472 21.9797 28.2395 21.4703L27.6049 20.8374C27.4511 20.677 27.2664 20.5493 27.0619 20.4621C26.8575 20.3749 26.6375 20.3299 26.4152 20.3299C26.1929 20.3299 25.973 20.3749 25.7685 20.4621C25.5641 20.5493 25.3794 20.677 25.2255 20.8374L24.1154 21.9475L8.62061 6.45277L8.98954 3.91431L2.222 0ZM35.222 0.0524615C31.8831 -0.225077 27.456 1.98846 25.3846 3.91262C22.836 6.46123 23.2523 9.79339 25.278 13.0105L21.6835 16.6066L24.222 19.4615C25.5758 18.2769 27.5728 18.2769 28.9266 19.4615L29.6154 20.1486L29.7745 20.3077L31.2552 18.8269C34.3149 20.6258 37.4998 20.8848 39.9283 18.4563C42.2975 16.2563 44.8664 10.8308 43.6818 7.61539L38.9231 12.5332C38.2461 13.2102 37.2206 13.2102 36.5437 12.5332L31.6241 7.61539C31.4637 7.46154 31.3361 7.27684 31.2489 7.07239C31.1616 6.86794 31.1167 6.64796 31.1167 6.42569C31.1167 6.20342 31.1616 5.98344 31.2489 5.77899C31.3361 5.57454 31.4637 5.38984 31.6241 5.236L36.5454 0.318154C36.1223 0.169231 35.6992 0.0930769 35.222 0.0524615ZM16.6066 21.1538L10.4703 27.2885C9.81081 27.1425 9.13695 27.0716 8.46154 27.0769C3.72308 27.0769 0 30.8 0 35.5385C0 40.2769 3.72308 44 8.46154 44C13.2 44 16.9231 40.2769 16.9231 35.5385C16.9231 34.6703 16.786 33.836 16.5525 33.0525L20.1486 29.4563L19.6206 28.7692C18.2668 27.4154 18.2769 25.3643 19.4615 24.0088L16.6066 21.1538ZM29.722 28.8758C29.9335 28.8758 30.1332 28.9165 30.3025 29.0874L40.2989 39.0822C40.6374 39.4206 40.6374 39.9588 40.2989 40.2972C39.9604 40.6357 39.4189 40.6357 39.0804 40.2972L29.0874 30.3025C28.7489 29.964 28.7489 29.4258 29.0874 29.0874C29.2566 28.9182 29.5105 28.8758 29.722 28.8758ZM9.62584 31.1469L12.8514 34.3742L11.6871 38.7623L7.29892 39.9266L4.07169 36.6994L5.236 32.3112L9.62584 31.1469Z" fill="#014268"/>
</g>
<defs>
<clipPath id="clip0_186_1108">
<rect width="44" height="44" fill="white"/>
</clipPath>
</defs>
</svg>
